<svg version="1.1" preserveAspectRatio="none" xmlns="http://www.w3.org/2000/svg" width="500" height="500" viewBox="0 0 500 500"><rect width="100%" height="100%" fill="#2254D3" fill-opacity="1"/><svg viewBox="269.3355 184.2452 153.5352 120" width="333" height="260.26604973973394" x="83.5px" y="119.867px" xmlns="http://www.w3.org/2000/svg" xmlns:xlink="http://www.w3.org/1999/xlink" preserveAspectRatio="none"><defs></defs><style>.companyName {fill:#E9E9E9;fill-opacity:1;}.icon3-str {stroke:#7B7B7B;stroke-opacity:1;}.shape {fill:#FF6A22;fill-opacity:1;}.shapeStroke-str {stroke:#E9E9E9;stroke-opacity:1;}</style><g opacity="1" transform="rotate(0 290.3355 184.2452)">
<svg width="132.5352" height="120" x="290.3355" y="184.2452" version="1.1" preserveAspectRatio="none" viewBox="1.76 -30 89.24 80.8">
  <g transform="matrix(1 0 0 1 0 0)" class="companyName"><path id="id-D6z1nYkh7" d="M11.40-27.60L11.40-20L18.56-20L18.56-16.12L11.40-16.12L11.40-7.60Q11.40-5.24 12-4.42Q12.60-3.60 14.16-3.60L14.16-3.60Q16.08-3.60 17.76-4.28L17.76-4.28L18.44-0.40Q15.96 0.40 13.08 0.40L13.08 0.40Q9.40 0.40 7.74-1.24Q6.08-2.88 6.08-6.68L6.08-6.68L6.08-16.12L1.76-16.12L1.76-20L6.08-20L6.08-27.60L11.40-27.60Z M25.06-18.28Q27.84-21.20 32.60-21.20Q37.36-21.20 40.16-18.28Q42.96-15.36 42.96-10.40Q42.96-5.44 40.16-2.52Q37.36 0.40 32.60 0.40Q27.84 0.40 25.06-2.52Q22.28-5.44 22.28-10.40Q22.28-15.36 25.06-18.28ZM32.60-3.56L32.60-3.56Q35.04-3.56 36.40-5.30Q37.76-7.04 37.76-10.40Q37.76-13.76 36.40-15.50Q35.04-17.24 32.60-17.24L32.60-17.24Q30.20-17.24 28.84-15.50Q27.48-13.76 27.48-10.40Q27.48-7.04 28.84-5.30Q30.20-3.56 32.60-3.56Z M60.80-30L66-30L66 0L61.16 0L61.04-2.92L60.96-2.92Q58.60 0.40 54.60 0.40L54.60 0.40Q50.88 0.40 48.58-2.42Q46.28-5.24 46.28-10.40L46.28-10.40Q46.28-15.68 48.50-18.44Q50.72-21.20 54.60-21.20L54.60-21.20Q58.36-21.20 60.72-18.12L60.72-18.12L60.80-18.12L60.80-30ZM51.28-10.40L51.28-10.40Q51.28-7.16 52.62-5.42Q53.96-3.68 56.08-3.68Q58.20-3.68 59.50-5.38Q60.80-7.08 60.80-10.20L60.80-10.20L60.80-10.60Q60.80-13.64 59.50-15.38Q58.20-17.12 56.08-17.12L56.08-17.12Q53.80-17.12 52.54-15.44Q51.28-13.76 51.28-10.40Z M73.10-18.28Q75.88-21.20 80.64-21.20Q85.40-21.20 88.20-18.28Q91-15.36 91-10.40Q91-5.44 88.20-2.52Q85.40 0.40 80.64 0.40Q75.88 0.40 73.10-2.52Q70.32-5.44 70.32-10.40Q70.32-15.36 73.10-18.28ZM80.64-3.56L80.64-3.56Q83.08-3.56 84.44-5.30Q85.80-7.04 85.80-10.40Q85.80-13.76 84.44-15.50Q83.08-17.24 80.64-17.24L80.64-17.24Q78.24-17.24 76.88-15.50Q75.52-13.76 75.52-10.40Q75.52-7.04 76.88-5.30Q78.24-3.56 80.64-3.56Z M11.16 20.80L11.16 20.80Q15.92 20.80 18 22.66Q20.08 24.52 20.08 28.68L20.08 28.68L20.08 36.40Q20.08 39.24 20.68 42L20.68 42L15.76 42Q15.52 40.68 15.40 38.92L15.40 38.92L15.32 38.92Q14.20 40.56 12.30 41.48Q10.40 42.40 8.16 42.40L8.16 42.40Q5.24 42.40 3.50 40.78Q1.76 39.16 1.76 36.28L1.76 36.28Q1.76 32.80 4.70 30.70Q7.64 28.60 13.16 28.60L13.16 28.60L14.88 28.60L14.88 28.48Q14.88 26.36 14.04 25.52Q13.20 24.68 11.04 24.68L11.04 24.68Q7.12 24.68 3.64 26.48L3.64 26.48L2.88 22.60Q6.68 20.80 11.16 20.80ZM6.64 35.88L6.64 35.88Q6.64 37.16 7.40 37.88Q8.16 38.60 9.48 38.60L9.48 38.60Q11.76 38.60 13.32 37.12Q14.88 35.64 14.88 33.40L14.88 33.40L14.88 32.04L13.16 32.04Q10 32.04 8.32 33.10Q6.64 34.16 6.64 35.88Z M40.52 31.60L40.52 31.60Q40.52 28.24 39.26 26.56Q38 24.88 35.72 24.88L35.72 24.88Q33.60 24.88 32.30 26.62Q31 28.36 31 31.40L31 31.40L31 31.80Q31 34.92 32.30 36.62Q33.60 38.32 35.72 38.32Q37.84 38.32 39.18 36.58Q40.52 34.84 40.52 31.60ZM45.52 31.60L45.52 31.60Q45.52 36.76 43.22 39.58Q40.92 42.40 37.20 42.40L37.20 42.40Q33.36 42.40 31.08 39.48L31.08 39.48L31 39.48L31 50.80L25.80 50.80L25.80 21.20L30.68 21.20L30.76 24.12L30.84 24.12Q33.24 20.80 37.20 20.80L37.20 20.80Q41.08 20.80 43.30 23.56Q45.52 26.32 45.52 31.60Z M64.56 31.60L64.56 31.60Q64.56 28.24 63.30 26.56Q62.04 24.88 59.76 24.88L59.76 24.88Q57.64 24.88 56.34 26.62Q55.04 28.36 55.04 31.40L55.04 31.40L55.04 31.80Q55.04 34.92 56.34 36.62Q57.64 38.32 59.76 38.32Q61.88 38.32 63.22 36.58Q64.56 34.84 64.56 31.60ZM69.56 31.60L69.56 31.60Q69.56 36.76 67.26 39.58Q64.96 42.40 61.24 42.40L61.24 42.40Q57.40 42.40 55.12 39.48L55.12 39.48L55.04 39.48L55.04 50.80L49.84 50.80L49.84 21.20L54.72 21.20L54.80 24.12L54.88 24.12Q57.28 20.80 61.24 20.80L61.24 20.80Q65.12 20.80 67.34 23.56Q69.56 26.32 69.56 31.60Z"/></g>
</svg>
</g><g opacity="1" transform="rotate(0 269.3355 184.2452)">
<svg width="3" height="120" x="269.3355" y="184.2452" version="1.1" preserveAspectRatio="none" viewBox="0 0 3 120">
  <defs><rect x="0" y="0" width="3" height="120" rx="0px" ry="0px" id="id-tBXipXk0b1676199086181"></rect></defs><use class="shape shapeStroke-str" style="stroke-width:0;" xlink:href="#id-tBXipXk0b1676199086181"></use>
</svg>
</g></svg></svg>