<svg version="1.1" preserveAspectRatio="none" xmlns="http://www.w3.org/2000/svg" width="500" height="500" viewBox="0 0 500 500"><rect width="100%" height="100%" fill="#0F2D49" fill-opacity="1"/><svg viewBox="150.9042 173.7612 210.2431 120" width="333" height="190.06569062195146" x="83.5px" y="154.9672px" xmlns="http://www.w3.org/2000/svg" xmlns:xlink="http://www.w3.org/1999/xlink" preserveAspectRatio="none"><defs></defs><style>.companyName {fill:#CCBF90;fill-opacity:1;}.icon3-str {stroke:#EB63DD;stroke-opacity:1;}.shapeStroke-str {stroke:#CCBF90;stroke-opacity:1;}</style><g opacity="1" transform="rotate(0 167.9042 173.7612)">
<svg width="193.2431" height="120" x="167.9042" y="173.7612" version="1.1" preserveAspectRatio="none" viewBox="1 -28.32 113.24 70.32">
  <g transform="matrix(1 0 0 1 0 0)" class="companyName"><path id="id-D6z1nYkh7" d="M25.68-28.32Q25.40-24.52 25.40-21.52L25.40-21.52Q25.40-19.64 25.52-18.48L25.52-18.48L24.60-18.48Q23.64-23.40 21.98-25.40Q20.32-27.40 17.44-27.40L17.44-27.40L16.52-27.40L16.52-4.56Q16.52-2.88 16.86-2.12Q17.20-1.36 18.06-1.10Q18.92-0.84 20.80-0.80L20.80-0.80L20.80 0Q15.76-0.12 13.20-0.12L13.20-0.12Q10.68-0.12 5.88 0L5.88 0L5.88-0.80Q7.76-0.84 8.62-1.10Q9.48-1.36 9.82-2.12Q10.16-2.88 10.16-4.56L10.16-4.56L10.16-27.40L9.28-27.40Q7.36-27.40 6.02-26.56Q4.68-25.72 3.72-23.78Q2.76-21.84 2.08-18.48L2.08-18.48L1.16-18.48Q1.28-19.64 1.28-21.52L1.28-21.52Q1.28-24.52 1-28.32L1-28.32Q4.64-28.20 13.36-28.20L13.36-28.20Q22.08-28.20 25.68-28.32L25.68-28.32Z M41.56-24.88Q45.60-24.88 48.64-23.42Q51.68-21.96 53.36-19.14Q55.04-16.32 55.04-12.40L55.04-12.40Q55.04-8.56 53.32-5.62Q51.60-2.68 48.52-1.06Q45.44 0.56 41.52 0.56L41.52 0.56Q37.48 0.56 34.44-0.90Q31.40-2.36 29.72-5.18Q28.04-8 28.04-11.92L28.04-11.92Q28.04-15.76 29.76-18.70Q31.48-21.64 34.56-23.26Q37.64-24.88 41.56-24.88L41.56-24.88ZM41.40-24.16Q39.32-24.16 37.74-22.62Q36.16-21.08 35.30-18.34Q34.44-15.60 34.44-12.08L34.44-12.08Q34.44-8.52 35.40-5.80Q36.36-3.08 38.02-1.62Q39.68-0.16 41.68-0.16L41.68-0.16Q43.76-0.16 45.34-1.70Q46.92-3.24 47.78-5.98Q48.64-8.72 48.64-12.24L48.64-12.24Q48.64-15.80 47.68-18.52Q46.72-21.24 45.06-22.70Q43.40-24.16 41.40-24.16L41.40-24.16Z M69.84-24.32Q76.84-24.32 80.32-21.30Q83.80-18.28 83.80-12.48L83.80-12.48Q83.80-8.72 82.12-5.90Q80.44-3.08 77.20-1.54Q73.96 0 69.48 0L69.48 0L66.92-0.04Q64.36-0.12 63.16-0.12L63.16-0.12Q59.60-0.12 57.72 0L57.72 0L57.72-0.80Q59.08-0.88 59.68-1.12Q60.28-1.36 60.50-2.04Q60.72-2.72 60.72-4.24L60.72-4.24L60.72-20.08Q60.72-21.60 60.50-22.28Q60.28-22.96 59.68-23.20Q59.08-23.44 57.72-23.52L57.72-23.52L57.72-24.32Q59.24-24.20 62-24.20L62-24.20L65.84-24.24Q68.80-24.32 69.84-24.32L69.84-24.32ZM69.32-23.60Q68.28-23.60 67.76-23.32Q67.24-23.04 67.04-22.32Q66.84-21.60 66.84-20.16L66.84-20.16L66.84-4.16Q66.84-2.72 67.04-2Q67.24-1.28 67.76-1Q68.28-0.72 69.36-0.72L69.36-0.72Q72.44-0.72 74.20-2.02Q75.96-3.32 76.68-5.84Q77.40-8.36 77.40-12.32L77.40-12.32Q77.40-18.16 75.56-20.88Q73.72-23.60 69.32-23.60L69.32-23.60Z M100.76-24.88Q104.80-24.88 107.84-23.42Q110.88-21.96 112.56-19.14Q114.24-16.32 114.24-12.40L114.24-12.40Q114.24-8.56 112.52-5.62Q110.80-2.68 107.72-1.06Q104.64 0.56 100.72 0.56L100.72 0.56Q96.68 0.56 93.64-0.90Q90.60-2.36 88.92-5.18Q87.24-8 87.24-11.92L87.24-11.92Q87.24-15.76 88.96-18.70Q90.68-21.64 93.76-23.26Q96.84-24.88 100.76-24.88L100.76-24.88ZM100.60-24.16Q98.52-24.16 96.94-22.62Q95.36-21.08 94.50-18.34Q93.64-15.60 93.64-12.08L93.64-12.08Q93.64-8.52 94.60-5.80Q95.56-3.08 97.22-1.62Q98.88-0.16 100.88-0.16L100.88-0.16Q102.96-0.16 104.54-1.70Q106.12-3.24 106.98-5.98Q107.84-8.72 107.84-12.24L107.84-12.24Q107.84-15.80 106.88-18.52Q105.92-21.24 104.26-22.70Q102.60-24.16 100.60-24.16L100.60-24.16Z M26.04 38.64Q26.56 39.96 27.24 40.56Q27.92 41.16 28.56 41.20L28.56 41.20L28.56 42Q26.16 41.88 22.48 41.88L22.48 41.88Q18.40 41.88 16.40 42L16.40 42L16.40 41.20Q17.92 41.12 18.56 40.82Q19.20 40.52 19.20 39.76L19.20 39.76Q19.20 39.04 18.72 37.84L18.72 37.84L16.32 31.28L7.60 31.28L6.56 34.04Q5.44 36.92 5.44 38.48L5.44 38.48Q5.44 39.96 6.34 40.54Q7.24 41.12 9 41.20L9 41.20L9 42Q6.28 41.88 4.04 41.88L4.04 41.88Q2.20 41.88 1.00 42L1.00 42L1.00 41.20Q2.96 40.84 4.44 37L4.44 37L13.56 13.60Q14 13.64 14.96 13.64L14.96 13.64Q15.92 13.64 16.32 13.60L16.32 13.60L26.04 38.64ZM7.92 30.48L16.04 30.48L12.08 19.68L7.92 30.48Z M40.48 32.16L38.76 32.16L38.76 37.76Q38.76 39.28 39 39.96Q39.24 40.64 39.90 40.88Q40.56 41.12 42 41.20L42 41.20L42 42Q39.68 41.88 35.24 41.88L35.24 41.88Q31.52 41.88 29.64 42L29.64 42L29.64 41.20Q31 41.12 31.60 40.88Q32.20 40.64 32.42 39.96Q32.64 39.28 32.64 37.76L32.64 37.76L32.64 21.92Q32.64 20.40 32.42 19.72Q32.20 19.04 31.58 18.80Q30.96 18.56 29.64 18.48L29.64 18.48L29.64 17.68Q31.52 17.80 35 17.80L35 17.80L39.84 17.76Q40.68 17.72 41.76 17.72L41.76 17.72Q46.96 17.72 49.50 19.46Q52.04 21.20 52.04 24.40L52.04 24.40Q52.04 27.64 49.38 29.90Q46.72 32.16 40.48 32.16L40.48 32.16ZM41.24 18.48Q40.20 18.48 39.68 18.76Q39.16 19.04 38.96 19.76Q38.76 20.48 38.76 21.92L38.76 21.92L38.76 31.36L40.08 31.36Q43.24 31.36 44.44 29.60Q45.64 27.84 45.64 24.84L45.64 24.84Q45.64 21.60 44.62 20.04Q43.60 18.48 41.24 18.48L41.24 18.48Z M64.88 32.16L63.16 32.16L63.16 37.76Q63.16 39.28 63.40 39.96Q63.64 40.64 64.30 40.88Q64.96 41.12 66.40 41.20L66.40 41.20L66.40 42Q64.08 41.88 59.64 41.88L59.64 41.88Q55.92 41.88 54.04 42L54.04 42L54.04 41.20Q55.40 41.12 56.00 40.88Q56.60 40.64 56.82 39.96Q57.04 39.28 57.04 37.76L57.04 37.76L57.04 21.92Q57.04 20.40 56.82 19.72Q56.60 19.04 55.98 18.80Q55.36 18.56 54.04 18.48L54.04 18.48L54.04 17.68Q55.92 17.80 59.40 17.80L59.40 17.80L64.24 17.76Q65.08 17.72 66.16 17.72L66.16 17.72Q71.36 17.72 73.90 19.46Q76.44 21.20 76.44 24.40L76.44 24.40Q76.44 27.64 73.78 29.90Q71.12 32.16 64.88 32.16L64.88 32.16ZM65.64 18.48Q64.60 18.48 64.08 18.76Q63.56 19.04 63.36 19.76Q63.16 20.48 63.16 21.92L63.16 21.92L63.16 31.36L64.48 31.36Q67.64 31.36 68.84 29.60Q70.04 27.84 70.04 24.84L70.04 24.84Q70.04 21.60 69.02 20.04Q68 18.48 65.64 18.48L65.64 18.48Z"/></g>
</svg>
</g><g opacity="1" transform="rotate(0 150.9042 173.7612)">
<svg width="3" height="120" x="150.9042" y="173.7612" version="1.1" preserveAspectRatio="none" viewBox="0 0 3 120">
  <defs><rect x="0" y="0" width="3" height="120" rx="0px" ry="0px" id="id-tBXipXk0b1676199338020"></rect></defs><use class="companyName shapeStroke-str" style="stroke-width:0;" xlink:href="#id-tBXipXk0b1676199338020"></use>
</svg>
</g></svg></svg>