<svg version="1.1" preserveAspectRatio="none" xmlns="http://www.w3.org/2000/svg" width="500" height="500" viewBox="0 0 500 500"><rect width="100%" height="100%" fill="#284FC2" fill-opacity="1"/><svg viewBox="476.0279 362.9227 219.191 250" width="291.96241200000003" height="333" x="104.0188px" y="83.5px" xmlns="http://www.w3.org/2000/svg" xmlns:xlink="http://www.w3.org/1999/xlink" preserveAspectRatio="none"><defs></defs><style>.companyName {fill:#68D065;fill-opacity:1;}.icon1 {fill:#68D065;fill-opacity:1;}.icon2 {fill:#FBFBFB;fill-opacity:1;}.icon3 {fill:#F3B9E0;fill-opacity:1;}.icon3-str {stroke:#F3B9E0;stroke-opacity:1;}</style><g opacity="1" transform="rotate(0 549.9984 362.9227)">
<svg width="71.25" height="100" x="549.9984" y="362.9227" version="1.1" preserveAspectRatio="none" viewBox="42.99917221069336 19.999788284301758 114.00068664550781 160.001220703125">
  <g transform="matrix(1 0 0 1 0 0)" ><g><path d="M156.514 155.343c-5.528-22.538-14.042-62.301-21.418-65.858-3.16-1.745-5.386-1.864-6.921-.844-4.793-2.089-10.427-2.859-14.915-3.484v.001l-.37 63.468.37-63.468v-.001l-3.519-3.746h-.346l-.155-6.109-16.373.666-.138 5.443h-.927l-3.519 3.746c-5 .696-11.424 1.572-16.522 4.252-1.371-1.001-3.165-1.09-5.471.076-7.76 5.099-16.064 41.728-22.778 66.872-2.657 9.949 5.371 19.528 15.755 18.806l4.017-.348a1256.59 1256.59 0 0 1-.308 5.186h31.336l.317-7.755-.316 7.754h18.393l.047-7.998-.046 7.998h38.092l.941-10.536c4.062-2.651 6.31-7.859 4.774-14.121zm-18.609-5.442-.001.007.001-.007c.005-.061.009-.124.009-.188.004-1.246-.53-1.667-.904-1.809.374.142.908.563.904 1.809 0 .065-.003.127-.009.188zm-.064.348a2.652 2.652 0 0 1-.303.688h-.007a2.67 2.67 0 0 0 .31-.688zm-17.087-.886zm17.681-3.778c.048.396.009.723-.086.992a2.17 2.17 0 0 0 .086-.992c-.05-.404-.179-.703-.345-.925.166.222.295.521.345.925zm-2.713-1.65.423.034-.423-.034-.53-.04.53.04zm-4.499-.126zm-.557-1.805zm-.528-.105c-1.087-.012-2.71.841-3.854 1.893 1.144-1.052 2.767-1.905 3.854-1.893zm-65.071-2.895zm-8.659 4.497c.013-.813.388-1.245.759-1.474-.372.229-.746.661-.759 1.474-.012.757.268 1.234.622 1.535-.354-.301-.634-.778-.622-1.535zm1.483-1.725zm3.251 12.294c-.109-.226-.24-.445-.375-.68.134.235.265.454.375.68.289.594.905.957 1.628 1.181-.723-.224-1.339-.587-1.628-1.181zm4.202 1.505zm.008 0c.894-.001 1.567-.088 1.567-.088l7.688-.604-7.688.604c0 .001-.673.087-1.567.088z" data-color="1" class="icon1"></path><path d="m106.867 171.133-12.236 1.112-.318 7.755h12.918l-.364-8.867z" data-color="1" class="icon1"></path><path d="m95.665 147.011 10.254.961-2.106-51.404.726-5.965-3.767-4.218-3.767 4.218.726 5.965-.324 7.896-1.742 42.547z" data-color="1" class="icon1"></path><path d="m109.603 167.259.474 2.842a.685.685 0 0 1-.101.479l.044.184-.246.021a.675.675 0 0 1-.311.112l-2.594.236.363 8.867h5.476l.047-7.998.034-5.892-3.469-.56.283 1.709z" data-color="1" class="icon1"></path><path d="M88.838 180h5.475l.318-7.755-5.836.53.043 7.225z" data-color="1" class="icon1"></path><path d="m113.26 85.156-3.519-3.746-.267.093-8.702 3.045-8.127-2.843-.842-.295-3.519 3.746v.001l.255 43.591.102 17.605 7.024.658 1.742-42.547.324-7.896-.726-5.965 3.767-4.218 3.767 4.218-.726 5.965 2.106 51.404 6.97.654.371-63.468v-.002z" data-color="1" class="icon1"></path><path d="M156.514 155.343c-5.528-22.538-14.042-62.301-21.418-65.858-3.16-1.745-5.387-1.864-6.922-.844-4.793-2.089-10.427-2.859-14.915-3.484v.001l-.37 63.468-6.971-.654-10.254-.961-7.023-.658-.103-17.605-.254-43.591v-.001c-5.001.696-11.424 1.572-16.522 4.252-1.371-1.001-3.165-1.09-5.471.076-7.76 5.099-16.064 41.728-22.778 66.872-2.657 9.949 5.37 19.528 15.755 18.806l4.017-.348a1256.59 1256.59 0 0 1-.308 5.186h25.86l-.042-7.225 5.836-.53 12.236-1.112 2.594-.236a.675.675 0 0 0 .311-.112l.246-.021-.044-.184a.68.68 0 0 0 .101-.479l-.473-2.842-.285-1.708 3.469.56.673.109-.675.182-.033 5.601-.045 7.997h25.841c-.209-3.486-.394-6.783-.543-9.749l4.467.822c9.05 1.85 16.539-5.552 14.043-15.73zm-30.229-11.551c2.032-1.871 5.582-3.11 4.939.017.982-.118 3.186.023 4.498.126.619.048 1.041.088 1.041.088s1.474-.053 1.673 1.562c.097.791-.159 1.308-.505 1.643-.445.431-1.037.563-1.217.594l-.059.01s.023 0 .061.003c.252.022 1.204.217 1.199 1.878 0 .064-.004.126-.009.188l-.004.036c-.011.104-.03.203-.055.3a2.659 2.659 0 0 1-.307.7l-.007-.001-16.778-1.573c1.851-1.912 4.492-4.616 5.53-5.571zM61.142 154.07c-.28-.575-.681-1.071-.989-2.034-.778-2.434-2.609-2.866-2.788-4.484-.21-1.903 1.053-2.002 1.053-2.002s-2.042-.032-2.01-2.049c.026-1.627 1.498-1.727 1.498-1.727s4.031-.811 5.486-.789c-.973-3.043 2.689-2.179 4.909-.53 1.825 1.356 8.265 6.788 8.265 6.788l4.457.83-1.07 8.027-5.346-1.218-7.688.604c0 .002-4.788.618-5.777-1.416z" data-color="1" class="icon1"></path><g opacity=".2"><path d="M109.943 170.632a.687.687 0 0 1-.17.153l.246-.021-.044-.184c-.011.017-.02.036-.032.052z"></path><path d="m140.587 151.222-3.048-.286-.007-.001-16.778-1.573-2.001-.188 5.822-35.594a.6.6 0 0 0-.25-.588l-5.117-3.57 4.79-3.551a.597.597 0 0 0 .223-.636l-4.436-16.525a.61.61 0 0 0-.745-.427.602.602 0 0 0-.433.736l4.331 16.133-5.131 3.803a.598.598 0 0 0 .015.973l5.49 3.83-5.774 35.302-4.649-.436-6.971-.654-10.254-.961-7.023-.659-5.158-.483-5.252-32.109 5.49-3.83a.597.597 0 0 0 .014-.973l-5.131-3.803 4.331-16.133a.602.602 0 0 0-.433-.736.611.611 0 0 0-.745.427l-4.436 16.525a.6.6 0 0 0 .223.636l4.79 3.551-5.117 3.57a.6.6 0 0 0-.25.588l5.262 32.171-.229-.022a.691.691 0 0 0-.745.594l-.233 1.75-1.07 8.027-.527 3.952a.686.686 0 0 0 .571.768L95 163.241l11.621 1.874 1.267.204.713 4.276-1.789.163-12.123 1.102-25.628 2.33a.687.687 0 0 0 .124 1.367l19.612-1.783 5.836-.53 12.236-1.112 2.594-.236a.675.675 0 0 0 .311-.112.67.67 0 0 0 .17-.153c.013-.016.021-.035.032-.052a.68.68 0 0 0 .101-.479l-.474-2.842-.285-1.708 3.469.56.673.109 1.238.2-.538 3.291a.602.602 0 0 0 .602.698c.294 0 .552-.21.601-.506l.538-3.29 20.851 3.363a.686.686 0 1 0 .219-1.355l-30.407-4.904-11.507-1.856-14.181-2.287 1.655-12.413 13.078 1.226 10.367.972 34.483 3.233a.687.687 0 0 0 .128-1.369z"></path></g><path d="M76.566 147.244s-6.44-5.433-8.265-6.788c-2.22-1.649-5.882-2.513-4.909.53-1.455-.023-5.486.789-5.486.789s-1.471.1-1.497 1.727c-.032 2.018 2.01 2.049 2.01 2.049s-1.263.099-1.053 2.002c.179 1.617 2.01 2.049 2.788 4.484.308.962.709 1.458.989 2.034.989 2.034 5.777 1.418 5.777 1.418l7.688-.604 5.346 1.218 1.07-8.027-4.458-.832z" data-color="2" class="icon2"></path><path d="m112.788 166.11-3.47-.559.285 1.708 3.183-.858.675-.182-.673-.109z" data-color="2" class="icon2"></path><path d="M137.846 150.237c.025-.097.044-.196.055-.3l.004-.036c.005-.061.009-.124.009-.188.006-1.662-.947-1.856-1.198-1.878-.038-.003-.061-.003-.061-.003s.024-.003.059-.01c.18-.031.772-.163 1.217-.594.346-.335.602-.852.505-1.643-.199-1.615-1.673-1.562-1.673-1.562s-.422-.04-1.041-.088c-1.313-.103-3.517-.244-4.498-.126.644-3.127-2.906-1.887-4.938-.017-1.04.957-3.678 3.658-5.53 5.571l16.778 1.573c.132-.223.247-.45.312-.699z" data-color="2" class="icon2"></path><path d="M109.24 75.301c-.535.683-1.342 1.374-2.494 1.921 1.153-.547 1.959-1.238 2.494-1.921l-.086-3.369a14.88 14.88 0 0 1-2.084 1.297s-1.739 1.319-6.072 1.319-6.072-1.319-6.072-1.319a14.78 14.78 0 0 1-1.959-1.206l-.1 3.944-.222 8.776 8.127 2.843 8.702-3.044-.234-9.241z" data-color="2" class="icon2"></path><path d="M122.435 51.129c-1.082-.475-2.539-.065-3.663.779l-.829 2.654 2.489-10.976-8.204-4.861-15.8-2.127-13.673 1.215 1.993 16.157.046.592-.112-.224-1.041-2.082a5.497 5.497 0 0 0-.538-.435c-1.048-.744-2.353-1.111-3.375-.758-.978.338-1.696 1.334-1.677 3.295.042 4.475 7.161 6.641 7.161 6.642 1.484 6.182 4.943 9.991 7.755 12.022a14.78 14.78 0 0 0 1.959 1.206s1.739 1.319 6.072 1.319 6.072-1.319 6.072-1.319a14.88 14.88 0 0 0 2.084-1.297c.477-.351.971-.753 1.471-1.209 2.418-2.208 4.947-5.674 6.159-10.722l.088-.028c.812-.265 7.033-2.43 7.073-6.614.018-1.847-.619-2.838-1.51-3.229z" data-color="2" class="icon2"></path><path d="M98.151 67.039c3.244 1.25 5.679.107 5.782.058a.741.741 0 1 0-.644-1.336c-.019.009-1.953.915-4.604-.106a.743.743 0 0 0-.959.425.741.741 0 0 0 .425.959z" data-color="3" class="icon3"></path><path d="M101.086 61.577c-.016-.143.022-.33.13-.425.319-.279.711-.471 1.048-.729.053-.049.103-.101.148-.157.027-.05.053-.103.076-.155a2.863 2.863 0 0 0-.05-.367c-.044-.162-.075-.327-.14-.482a9.826 9.826 0 0 0-.19-.434c-.259-.458-.484-.927-.722-1.394a19.923 19.923 0 0 0-.252-.443c-.088-.152-.142-.293-.114-.461a.526.526 0 0 1 .247-.371.61.61 0 0 1 .467-.063c.15.037.328.142.409.281.18.307.352.615.508.931.112.225.22.451.335.675.192.348.392.692.517 1.065.032.095.055.195.079.292.035.137.085.271.102.409.027.213.083.431.05.643-.036.237-.153.453-.281.646-.127.193-.313.336-.497.476-.261.204-.555.367-.831.55a.562.562 0 0 1-.352.122.708.708 0 0 1-.453-.172.69.69 0 0 1-.234-.437z" opacity=".3"></path><path d="M95.412 48.626c-.629-.948-2.375-1.388-5.336-.749.029-.006.059-.009.089-.014-2.124.682-1.652 1.283-.376 1.289 2.744.012 6.363.412 5.623-.526z" data-color="4" class="icon1"></path><path d="M112.165 47.972c-.142-.669-2.663-1.069-5.054-.386-2.873.822-2.604 2.507 1.117 1.306 2.169-.7 4.164.153 3.937-.92z" data-color="4" class="icon1"></path><path d="M93.087 53.828c0 .839-.408 1.519-.912 1.519s-.912-.68-.912-1.519c0-.839.408-1.519.912-1.519s.912.68.912 1.519z" data-color="4" class="icon1"></path><path d="M111.013 53.828c0 .839-.408 1.519-.912 1.519s-.912-.68-.912-1.519c0-.839.408-1.519.912-1.519s.912.68.912 1.519z" data-color="4" class="icon1"></path><path d="M113.666 23.724c-15.115-9.288-23.837 1.723-23.837 1.723s-6.642-.203-10.416 6.506c-2.469 4.389.059 8.492 3.311 17.18.153.408.31.821.477 1.244l.44.881 1.153 2.305-.307-3.99 7.673-12.276s20.441 5.297 20.612 5.96c0 0 3.328 4.781 5.17 6.316v3.99l.829-2.654.441-1.412.264-.844c1.283-5.941 8.703-16.011-5.81-24.929z" data-color="4" class="icon1"></path><path d="m125.718 156.396.496 4.631c-1.491-.258-3.151-.208-4.589.77-1.687 1.148-2.579 3.287-2.652 6.361-.073 3.082.832 5.447 2.69 7.029 1.942 1.653 4.463 1.988 6.186 1.988l.094-.001.303 2.826h22.552l2.108-23.604h-27.188zm-1.868 16.223c-1.046-.891-1.553-2.365-1.505-4.381.032-1.322.261-3.03 1.177-3.653.336-.228.767-.317 1.239-.317.585 0 1.231.137 1.833.31l.989 9.223c-1.141-.026-2.653-.262-3.733-1.182z" data-color="5" class="icon2"></path><path d="m106.867 171.133-12.236 1.112-.318 7.755h12.918l-.364-8.867z" data-color="6" class="icon3"></path><path d="m95.665 147.011 10.254.961-2.106-51.404.726-5.965-3.767-4.218-3.767 4.218.726 5.965-.324 7.896-1.742 42.547z" data-color="6" class="icon3"></path><path d="m109.603 167.259.474 2.842a.685.685 0 0 1-.101.479l.044.184-.246.021a.675.675 0 0 1-.311.112l-2.594.236.363 8.867h5.476l.047-7.998.034-5.892-3.469-.56.283 1.709z" data-color="5" class="icon2"></path><path d="M88.838 180h5.475l.318-7.755-5.836.53.043 7.225z" data-color="5" class="icon2"></path><path d="m113.26 85.156-3.519-3.746-.267.093-8.702 3.045-8.127-2.843-.842-.295-3.519 3.746v.001l.255 43.591.102 17.605 7.024.658 1.742-42.547.324-7.896-.726-5.965 3.767-4.218 3.767 4.218-.726 5.965 2.106 51.404 6.97.654.371-63.468v-.002z" data-color="5" class="icon2"></path><path d="m109.24 75.301-.086-3.369a14.88 14.88 0 0 1-2.084 1.297s-1.739 1.319-6.072 1.319-6.072-1.319-6.072-1.319a14.78 14.78 0 0 1-1.959-1.206l-.1 3.944c2.065 1.145 5.754 2.307 8.131 2.33 4.612.045 7.069-1.498 8.242-2.996z" opacity=".2"></path></g></g>
</svg>
</g><g opacity="1" transform="rotate(0 476.0279 492.9227)">
<svg width="219.191" height="120" x="476.0279" y="492.9227" version="1.1" preserveAspectRatio="none" viewBox="0.16 -28.64 125.32 68.64">
  <g transform="matrix(1 0 0 1 0 0)" class="companyName"><path id="id-D6z1nYkh7" d="M8.36 0L8.36-20.68L0.16-20.68L0.16-28L26-28L26-20.68L17.80-20.68L17.80 0L8.36 0Z M42.72 0.64Q38.20 0.64 34.60-1.24Q31-3.12 28.96-6.46Q26.92-9.80 26.92-14L26.92-14Q26.92-18.20 28.96-21.54Q31-24.88 34.60-26.76Q38.20-28.64 42.72-28.64L42.72-28.64Q47.24-28.64 50.84-26.76Q54.44-24.88 56.48-21.54Q58.52-18.20 58.52-14L58.52-14Q58.52-9.80 56.48-6.46Q54.44-3.12 50.84-1.24Q47.24 0.64 42.72 0.64L42.72 0.64ZM42.72-7Q44.48-7 45.90-7.86Q47.32-8.72 48.16-10.30Q49-11.88 49-14L49-14Q49-16.12 48.16-17.70Q47.32-19.28 45.90-20.14Q44.48-21 42.72-21L42.72-21Q40.96-21 39.54-20.14Q38.12-19.28 37.28-17.70Q36.44-16.12 36.44-14L36.44-14Q36.44-11.88 37.28-10.30Q38.12-8.72 39.54-7.86Q40.96-7 42.72-7L42.72-7Z M61.96 0L61.96-28L75.76-28Q80.44-28 84.02-26.30Q87.60-24.60 89.58-21.44Q91.56-18.28 91.56-14L91.56-14Q91.56-9.72 89.58-6.56Q87.60-3.40 84.02-1.70Q80.44 0 75.76 0L75.76 0L61.96 0ZM71.40-7.36L75.36-7.36Q78.40-7.36 80.22-9.10Q82.04-10.84 82.04-14L82.04-14Q82.04-17.16 80.22-18.90Q78.40-20.64 75.36-20.64L75.36-20.64L71.40-20.64L71.40-7.36Z M109.68 0.64Q105.16 0.64 101.56-1.24Q97.96-3.12 95.92-6.46Q93.88-9.80 93.88-14L93.88-14Q93.88-18.20 95.92-21.54Q97.96-24.88 101.56-26.76Q105.16-28.64 109.68-28.64L109.68-28.64Q114.20-28.64 117.80-26.76Q121.40-24.88 123.44-21.54Q125.48-18.20 125.48-14L125.48-14Q125.48-9.80 123.44-6.46Q121.40-3.12 117.80-1.24Q114.20 0.64 109.68 0.64L109.68 0.64ZM109.68-7Q111.44-7 112.86-7.86Q114.28-8.72 115.12-10.30Q115.96-11.88 115.96-14L115.96-14Q115.96-16.12 115.12-17.70Q114.28-19.28 112.86-20.14Q111.44-21 109.68-21L109.68-21Q107.92-21 106.50-20.14Q105.08-19.28 104.24-17.70Q103.40-16.12 103.40-14L103.40-14Q103.40-11.88 104.24-10.30Q105.08-8.72 106.50-7.86Q107.92-7 109.68-7L109.68-7Z M41.40 40L39.52 35.12L28.88 35.12L27.00 40L17.40 40L29.64 12L38.92 12L51.16 40L41.40 40ZM31.48 28.32L36.92 28.32L34.20 21.28L31.48 28.32Z M66.16 12Q70.04 12 72.92 13.28Q75.80 14.56 77.36 16.96Q78.92 19.36 78.92 22.56L78.92 22.56Q78.92 25.76 77.36 28.16Q75.80 30.56 72.92 31.84Q70.04 33.12 66.16 33.12L66.16 33.12L62.12 33.12L62.12 40L52.68 40L52.68 12L66.16 12ZM65.56 25.84Q67.48 25.84 68.44 24.98Q69.40 24.12 69.40 22.56L69.40 22.56Q69.40 21 68.44 20.14Q67.48 19.28 65.56 19.28L65.56 19.28L62.12 19.28L62.12 25.84L65.56 25.84Z M95.48 12Q99.36 12 102.24 13.28Q105.12 14.56 106.68 16.96Q108.24 19.36 108.24 22.56L108.24 22.56Q108.24 25.76 106.68 28.16Q105.12 30.56 102.24 31.84Q99.36 33.12 95.48 33.12L95.48 33.12L91.44 33.12L91.44 40L82 40L82 12L95.48 12ZM94.88 25.84Q96.80 25.84 97.76 24.98Q98.72 24.12 98.72 22.56L98.72 22.56Q98.72 21 97.76 20.14Q96.80 19.28 94.88 19.28L94.88 19.28L91.44 19.28L91.44 25.84L94.88 25.84Z"/></g>
</svg>
</g></svg></svg>